<svg width="16" height="20" viewBox="0 0 16 20" fill="none" xmlns="http://www.w3.org/2000/svg">
<path d="M6.00001 12.65V7.35L11 10L6.00001 12.65ZM13.77 8.32C13 8 12.57 7.82 12.57 7.82L14 7.06C15.84 6.1 16.53 3.83 15.56 2C14.59 0.169999 12.32 -0.530001 10.49 0.439999L2.00001 4.94C0.710014 5.62 -0.0699859 6.98 1.40686e-05 8.43C0.0700141 9.85 0.930014 11.1 2.22001 11.68C2.25001 11.69 3.42001 12.18 3.42001 12.18L2.00001 12.93C0.170014 13.9 -0.529986 16.17 0.440014 18C1.41001 19.83 3.68001 20.53 5.51001 19.56L14.01 15.06C15.3 14.38 16.07 13.02 16 11.57C15.93 10.15 15.06 8.89 13.77 8.32ZM13.54 14.18L5.04001 18.68C3.70001 19.39 2.03001 18.88 1.32001 17.54C0.610014 16.2 1.12001 14.53 2.46001 13.82L4.50001 12.74V11.53L3.81001 11.25L2.70001 10.79C1.71001 10.38 1.05001 9.44 1.00001 8.38C0.950014 7.32 1.52001 6.32 2.46001 5.82L10.96 1.32C12.3 0.609999 13.97 1.12 14.68 2.46C15.39 3.8 14.88 5.47 13.54 6.18L11.5 7.26V8.47L13.3 9.21C14.29 9.62 14.95 10.56 15 11.62C15.05 12.68 14.48 13.68 13.54 14.18Z" fill="white"/>
</svg>
